# xmcd
#
# Track frame offsets:
#	150
#	18142
#	29665
#	41570
#	57220
#	69727
#	84590
#	106907
#	118255
#	133752
#	146115
#
# Disc length: 2220 seconds
#
# Revision: 0
# Processed by: cddbd v1.4PL0 Copyright (c) Steve Scherf et al.
# Submitted via: EasyCDDAExtractor 4.5.0.2
#
DISCID=9e08aa0b
DTITLE=Craig Duncan - Smoky Mountain Homeplace
DYEAR=1900
DGENRE=
TTITLE0=Liberty/Soldier's Joy
TTITLE1=Grandfather's Clock
TTITLE2=Shady Grove
TTITLE3=Ashoken Farewell
TTITLE4=Freight Train
TTITLE5=Irish Washerwoman
TTITLE6=Wildwood Flower/Red Wing/Weaving Way
TTITLE7=You Are My Flower
TTITLE8=Bonaparte's Retreat
TTITLE9=Quiet Cove
TTITLE10=Tennessee Wagoneer/Stoney Point
EXTD=
EXTT0=
EXTT1=
EXTT2=
EXTT3=
EXTT4=
EXTT5=
EXTT6=
EXTT7=
EXTT8=
EXTT9=
EXTT10=
PLAYORDER=
